<svg width="79" height="34" viewBox="0 0 79 34" fill="none" xmlns="http://www.w3.org/2000/svg">
<path fill-rule="evenodd" clip-rule="evenodd" d="M11.2835 14.0611C10.7798 14.2818 10.8675 15.0124 11.48 15.6986C11.9573 16.2333 11.9986 16.4132 11.6997 16.6563C10.4535 17.6697 9.62669 19.1093 9.42784 20.6121C9.39222 20.8813 9.37587 20.9288 9.31295 20.9458C9.17033 20.9844 8.91163 20.9657 8.56627 20.8921C7.67011 20.7009 7 20.9681 7 21.5167C7 22.0534 7.73697 22.3174 8.5871 22.0851C9.09057 21.9475 9.38111 22.0259 9.41483 22.3084C9.59577 23.8258 10.479 25.3849 11.6951 26.3332C11.827 26.4361 11.9353 26.5443 11.9356 26.5735C11.9369 26.6896 11.7952 26.9275 11.5957 27.1442C10.9224 27.8752 10.773 28.5964 11.2307 28.9067C11.68 29.2114 12.2483 28.7477 12.5391 27.839C12.6436 27.5126 12.7958 27.2492 12.9276 27.1667C12.9675 27.1418 13.0707 27.167 13.298 27.2572C14.6511 27.794 16.3489 27.794 17.702 27.2572C17.9293 27.167 18.0325 27.1418 18.0724 27.1667C18.2042 27.2492 18.3564 27.5126 18.4609 27.839C18.7517 28.7477 19.32 29.2114 19.7693 28.9067C20.227 28.5964 20.0776 27.8752 19.4043 27.1442C19.2048 26.9275 19.0631 26.6896 19.0644 26.5735C19.0647 26.5443 19.173 26.4361 19.3049 26.3332C20.4599 25.4325 21.2975 24.0198 21.5306 22.5797C21.5832 22.2544 21.6226 22.1062 21.665 22.0729C21.7424 22.0124 22.1552 22.0346 22.5187 22.1189C23.3137 22.3031 24 22.003 24 21.471C24 20.9458 23.2533 20.6831 22.4129 20.9127C21.9389 21.0423 21.616 20.9689 21.5825 20.7242C21.3597 19.0959 20.5274 17.6282 19.265 16.6376C19.1535 16.5501 19.0626 16.4543 19.063 16.4248C19.0648 16.3039 19.2051 16.0729 19.4197 15.8378C20.0685 15.1267 20.2153 14.3935 19.7693 14.0911C19.3205 13.7868 18.7208 14.2713 18.4627 15.1468C18.3305 15.5949 18.126 15.8911 17.9798 15.8463C17.9447 15.8356 17.7573 15.7681 17.5633 15.6964C16.1853 15.1871 14.666 15.2105 13.2297 15.7633C12.8535 15.9081 12.7875 15.8557 12.5889 15.2542C12.2832 14.3285 11.7615 13.8516 11.2835 14.0611ZM16.3498 17.1702C16.542 17.2096 16.8347 17.2912 17.0002 17.3514L17.3013 17.4611L17.2254 17.5903C17.1836 17.6614 17.0133 17.9591 16.8469 18.2519C16.6805 18.5446 16.5402 18.7901 16.5352 18.7974C16.5302 18.8046 16.3943 18.7736 16.2334 18.7285C15.8505 18.6212 15.179 18.6127 14.8299 18.7107C14.7038 18.7461 14.5712 18.7772 14.5353 18.7797C14.449 18.7856 13.6821 17.4877 13.7473 17.446C14.2031 17.1546 15.568 17.0099 16.3498 17.1702ZM13.3215 18.6077L13.6977 19.2651L13.5408 19.4106C13.3162 19.6189 13.0491 19.9948 12.9105 20.2975C12.8018 20.535 12.7637 20.6508 12.6989 20.94L12.6771 21.0376H11.9018C11.3646 21.0376 11.1265 21.0257 11.1265 20.9988C11.1265 20.1856 11.8329 18.8502 12.6297 18.157C12.9398 17.8872 12.8911 17.8554 13.3215 18.6077ZM18.2743 18.086C19.0683 18.7178 19.667 19.7743 19.8312 20.8335L19.8628 21.0376L19.0833 21.0374L18.304 21.0371L18.2427 20.7816C18.1257 20.2938 17.8629 19.8282 17.5036 19.4722L17.2967 19.2673L17.6769 18.6087C17.886 18.2466 18.0675 17.9503 18.0803 17.9503C18.0931 17.9503 18.1804 18.0113 18.2743 18.086ZM15.9662 20.3905C16.5678 20.6589 16.8497 21.3893 16.5807 21.9821C16.0684 23.1108 14.4082 22.8241 14.3097 21.59C14.2389 20.702 15.1635 20.0325 15.9662 20.3905ZM12.7487 22.253C12.8928 22.7587 13.2076 23.2857 13.5532 23.5999L13.6946 23.7284L13.4471 24.1662C13.311 24.407 13.1369 24.7124 13.0601 24.8449L12.9206 25.0857L12.7386 24.9336C11.8674 24.2055 11.1265 22.8539 11.1265 21.9926C11.1265 21.9741 11.456 21.9603 11.8959 21.9603H12.6653L12.7487 22.253ZM19.8501 22.0933C19.6915 23.208 19.1344 24.2039 18.2614 24.9336L18.0794 25.0857L17.9399 24.8449C17.8631 24.7124 17.6901 24.4091 17.5554 24.1708L17.3106 23.7375L17.5257 23.5142C17.8765 23.1501 18.1277 22.7025 18.2483 22.2264C18.273 22.1288 18.2991 22.029 18.3063 22.0046C18.3163 21.9708 18.5048 21.9603 19.0942 21.9603H19.869L19.8501 22.0933ZM14.7801 24.2717C15.1856 24.3818 15.796 24.3817 16.2171 24.2714C16.3884 24.2266 16.5323 24.1952 16.5369 24.2018C16.6634 24.3823 17.2636 25.4929 17.2516 25.5243C17.1941 25.6753 16.1477 25.8993 15.5 25.8993C14.8534 25.8993 13.806 25.6754 13.7486 25.5249C13.7323 25.4821 14.4389 24.2001 14.4804 24.1973C14.4918 24.1966 14.6267 24.23 14.7801 24.2717Z" fill="white" style="fill:white;fill-opacity:1;"/>
<path d="M18.5732 13.5928C18.9513 13.2875 19.5282 13.0993 20.0801 13.4033L20.1904 13.4707L20.2881 13.543C20.7509 13.9185 20.8347 14.4855 20.7402 14.958C20.6469 15.4245 20.377 15.8841 20.0186 16.29C21.1635 17.2964 21.9448 18.6662 22.249 20.1807C22.771 20.0441 23.3141 20.0406 23.7705 20.2012C24.2347 20.3644 24.7499 20.773 24.75 21.4707C24.75 22.1191 24.3155 22.551 23.8584 22.751C23.4098 22.9472 22.8693 22.97 22.3496 22.8496C22.3154 22.8417 22.2799 22.8365 22.2451 22.8301C21.9738 24.3023 21.1579 25.7244 20.0225 26.7119C20.3789 27.1165 20.6495 27.5696 20.7451 28.0312C20.8526 28.5504 20.7376 29.1562 20.1904 29.5273C19.9341 29.7012 19.6334 29.778 19.3252 29.7402C19.0298 29.7041 18.7782 29.5701 18.5811 29.4092C18.1958 29.0947 17.9178 28.6038 17.7461 28.0674C17.7434 28.0589 17.7391 28.0512 17.7363 28.043C16.3323 28.5306 14.6666 28.5308 13.2627 28.043C13.26 28.0511 13.2566 28.059 13.2539 28.0674C13.0822 28.6038 12.8042 29.0947 12.4189 29.4092C12.2218 29.5701 11.9702 29.7041 11.6748 29.7402C11.3666 29.778 11.0659 29.7012 10.8096 29.5273C10.2624 29.1562 10.1474 28.5504 10.2549 28.0312C10.3505 27.5698 10.6203 27.1164 10.9766 26.7119C9.84759 25.7272 9.01952 24.2862 8.7373 22.8193C8.21682 22.9533 7.67691 22.958 7.22168 22.7949C6.74664 22.6247 6.25 22.2073 6.25 21.5166C6.25003 20.8627 6.67869 20.4261 7.16895 20.2305C7.63005 20.0466 8.18347 20.0432 8.72266 20.1582C8.72878 20.1595 8.7352 20.1599 8.74121 20.1611C9.02222 18.6874 9.82707 17.3068 10.9883 16.2764C10.9676 16.2525 10.9457 16.226 10.9209 16.1982C10.5504 15.7831 10.2784 15.2914 10.2188 14.7949C10.1883 14.5409 10.2108 14.2564 10.3398 13.9883C10.4739 13.7097 10.6995 13.498 10.9824 13.374L11.0928 13.3311C11.6417 13.1434 12.1549 13.3571 12.5068 13.6787C12.8486 13.9911 13.1014 14.4457 13.2764 14.9492C14.7504 14.4569 16.3019 14.4565 17.7324 14.9619C17.7353 14.9528 17.7404 14.9441 17.7432 14.9346C17.9017 14.3968 18.184 13.9073 18.5732 13.5928ZM16.1611 25.0488C15.7432 25.1206 15.2549 25.1214 14.8389 25.0498C14.8327 25.0608 14.8265 25.0719 14.8203 25.083C15.0644 25.1231 15.3128 25.1494 15.5 25.1494C15.6875 25.1494 15.9358 25.1231 16.1797 25.083C16.1734 25.0716 16.1674 25.0601 16.1611 25.0488ZM18.8818 22.7129C18.7368 23.1246 18.5166 23.5097 18.2334 23.8467C18.2407 23.8596 18.2484 23.8726 18.2559 23.8857C18.5524 23.5359 18.779 23.1399 18.9297 22.7119C18.9132 22.712 18.8973 22.7128 18.8818 22.7129ZM12.0537 22.71C12.1098 22.8485 12.1788 22.9975 12.2637 23.1523C12.4039 23.4082 12.5703 23.655 12.749 23.874C12.7535 23.8661 12.7583 23.8584 12.7627 23.8506C12.4891 23.5203 12.2598 23.1166 12.1104 22.71H12.0537ZM15.6602 21.0742C15.5325 21.0176 15.3825 21.0349 15.25 21.1309C15.1171 21.2272 15.0452 21.3737 15.0576 21.5303C15.0938 21.9835 15.7016 22.1033 15.8975 21.6719C15.991 21.4655 15.8893 21.1774 15.6602 21.0752V21.0742ZM18.2275 19.1523C18.5114 19.4855 18.7327 19.8742 18.876 20.2871H18.9199C18.7652 19.8554 18.5325 19.4476 18.252 19.1113L18.2275 19.1523ZM12.748 19.1152C12.5639 19.3414 12.3889 19.6064 12.2422 19.8838C12.1675 20.025 12.1057 20.1606 12.0547 20.2871H12.1045C12.1382 20.1941 12.1765 20.0989 12.2285 19.9854L12.3008 19.8379C12.4235 19.6048 12.5901 19.3576 12.7656 19.1455L12.748 19.1152ZM15.8926 18.4102C15.8929 18.4097 15.8943 18.4083 15.8955 18.4062C15.8965 18.4046 15.8972 18.4025 15.8984 18.4004L15.8926 18.4102ZM16.1826 17.9023C15.8938 17.8462 15.4491 17.8377 15.0049 17.8848C14.945 17.8911 14.8868 17.9002 14.8301 17.9082C14.8366 17.9188 14.8432 17.9291 14.8496 17.9395C15.0712 17.9018 15.3121 17.8898 15.5283 17.8926C15.7301 17.8951 15.9499 17.9118 16.1572 17.9463C16.1655 17.9317 16.1742 17.9172 16.1826 17.9023Z" stroke="black" stroke-opacity="0.3" style="stroke:black;stroke-opacity:0.3;" stroke-width="1.5"/>
<path d="M29.951 26L27.481 16.77H29.262L30.952 23.66L32.655 16.77H34.228L35.931 23.66L37.608 16.77H39.402L36.932 26H35.06L33.448 19.682L31.836 26H29.951Z" fill="white" style="fill:white;fill-opacity:1;"/>
<path d="M40.3356 26V16.77H41.9996V20.644H41.7916C41.861 20.2454 41.9996 19.9204 42.2076 19.669C42.4156 19.409 42.6713 19.2184 42.9746 19.097C43.278 18.967 43.6116 18.902 43.9756 18.902C44.487 18.902 44.916 19.0147 45.2626 19.24C45.618 19.4567 45.8823 19.7644 46.0556 20.163C46.2376 20.5617 46.3286 21.021 46.3286 21.541V26H44.6646V21.944C44.6646 21.3807 44.5693 20.9604 44.3786 20.683C44.188 20.397 43.889 20.254 43.4816 20.254C43.031 20.254 42.6713 20.4014 42.4026 20.696C42.134 20.9907 41.9996 21.4197 41.9996 21.983V26H40.3356Z" fill="white" style="fill:white;fill-opacity:1;"/>
<path d="M50.8512 26.156C50.1579 26.156 49.5555 26.0087 49.0442 25.714C48.5329 25.4107 48.1385 24.986 47.8612 24.44C47.5839 23.894 47.4452 23.257 47.4452 22.529C47.4452 21.801 47.5839 21.1684 47.8612 20.631C48.1385 20.085 48.5285 19.6604 49.0312 19.357C49.5425 19.0537 50.1362 18.902 50.8122 18.902C51.4709 18.902 52.0472 19.0494 52.5412 19.344C53.0439 19.6387 53.4295 20.0634 53.6982 20.618C53.9669 21.1727 54.1012 21.84 54.1012 22.62V22.997H49.1742C49.2089 23.6037 49.3735 24.063 49.6682 24.375C49.9715 24.6784 50.3702 24.83 50.8642 24.83C51.2369 24.83 51.5445 24.7477 51.7872 24.583C52.0385 24.4097 52.2119 24.1714 52.3072 23.868L54.0102 23.972C53.8195 24.648 53.4425 25.181 52.8792 25.571C52.3245 25.961 51.6485 26.156 50.8512 26.156ZM49.1742 21.879H52.3852C52.3505 21.3157 52.1902 20.8997 51.9042 20.631C51.6182 20.3537 51.2542 20.215 50.8122 20.215C50.3702 20.215 50.0019 20.358 49.7072 20.644C49.4212 20.93 49.2435 21.3417 49.1742 21.879Z" fill="white" style="fill:white;fill-opacity:1;"/>
<path d="M58.2749 26.156C57.5816 26.156 56.9792 26.0087 56.4679 25.714C55.9566 25.4107 55.5622 24.986 55.2849 24.44C55.0076 23.894 54.8689 23.257 54.8689 22.529C54.8689 21.801 55.0076 21.1684 55.2849 20.631C55.5622 20.085 55.9522 19.6604 56.4549 19.357C56.9662 19.0537 57.5599 18.902 58.2359 18.902C58.8946 18.902 59.4709 19.0494 59.9649 19.344C60.4676 19.6387 60.8532 20.0634 61.1219 20.618C61.3906 21.1727 61.5249 21.84 61.5249 22.62V22.997H56.5979C56.6326 23.6037 56.7972 24.063 57.0919 24.375C57.3952 24.6784 57.7939 24.83 58.2879 24.83C58.6606 24.83 58.9682 24.7477 59.2109 24.583C59.4622 24.4097 59.6356 24.1714 59.7309 23.868L61.4339 23.972C61.2432 24.648 60.8662 25.181 60.3029 25.571C59.7482 25.961 59.0722 26.156 58.2749 26.156ZM56.5979 21.879H59.8089C59.7742 21.3157 59.6139 20.8997 59.3279 20.631C59.0419 20.3537 58.6779 20.215 58.2359 20.215C57.7939 20.215 57.4256 20.358 57.1309 20.644C56.8449 20.93 56.6672 21.3417 56.5979 21.879Z" fill="white" style="fill:white;fill-opacity:1;"/>
<path d="M64.4231 26C63.9204 26 63.5174 25.87 63.2141 25.61C62.9108 25.35 62.7591 24.934 62.7591 24.362V16.77H64.4231V24.193C64.4231 24.3664 64.4664 24.4964 64.5531 24.583C64.6484 24.6697 64.7784 24.713 64.9431 24.713H65.4501V26H64.4231Z" fill="white" style="fill:white;fill-opacity:1;"/>
<path d="M69.2079 26.156C68.5232 26.156 67.9469 26.0564 67.4789 25.857C67.0196 25.6577 66.6642 25.3804 66.4129 25.025C66.1616 24.6697 66.0186 24.2667 65.9839 23.816L67.6869 23.738C67.7476 24.102 67.8992 24.3837 68.1419 24.583C68.3846 24.7824 68.7442 24.882 69.2209 24.882C69.6109 24.882 69.9142 24.8214 70.1309 24.7C70.3562 24.57 70.4689 24.3707 70.4689 24.102C70.4689 23.946 70.4299 23.816 70.3519 23.712C70.2739 23.608 70.1266 23.517 69.9099 23.439C69.6932 23.361 69.3726 23.283 68.9479 23.205C68.2372 23.0837 67.6782 22.9364 67.2709 22.763C66.8636 22.581 66.5732 22.3557 66.3999 22.087C66.2352 21.8184 66.1529 21.4847 66.1529 21.086C66.1529 20.436 66.3999 19.9117 66.8939 19.513C67.3966 19.1057 68.1289 18.902 69.0909 18.902C69.7149 18.902 70.2392 19.006 70.6639 19.214C71.0886 19.4134 71.4179 19.6907 71.6519 20.046C71.8946 20.3927 72.0462 20.7914 72.1069 21.242L70.4299 21.32C70.3866 21.086 70.3086 20.8824 70.1959 20.709C70.0832 20.5357 69.9316 20.4057 69.7409 20.319C69.5502 20.2237 69.3249 20.176 69.0649 20.176C68.6749 20.176 68.3802 20.254 68.1809 20.41C67.9816 20.566 67.8819 20.774 67.8819 21.034C67.8819 21.216 67.9252 21.3677 68.0119 21.489C68.1072 21.6104 68.2589 21.71 68.4669 21.788C68.6749 21.8574 68.9522 21.9224 69.2989 21.983C70.0269 22.0957 70.5989 22.243 71.0149 22.425C71.4396 22.5984 71.7386 22.8237 71.9119 23.101C72.0939 23.3697 72.1849 23.6947 72.1849 24.076C72.1849 24.518 72.0592 24.895 71.8079 25.207C71.5652 25.519 71.2186 25.7574 70.7679 25.922C70.3259 26.078 69.8059 26.156 69.2079 26.156Z" fill="white" style="fill:white;fill-opacity:1;"/>
<path d="M72.1851 24.0757C72.1851 23.6945 72.0936 23.3697 71.9117 23.1011C71.7384 22.8238 71.4397 22.5986 71.0152 22.4253C70.5993 22.2433 70.0272 22.0956 69.2994 21.9829C68.9528 21.9223 68.6753 21.8569 68.4674 21.7876C68.2594 21.7096 68.1076 21.6101 68.0123 21.4888C67.9256 21.3674 67.8824 21.2157 67.8824 21.0337C67.8825 20.7738 67.982 20.5656 68.1812 20.4097C68.3805 20.2538 68.6752 20.1763 69.065 20.1763C69.3249 20.1763 69.5502 20.2236 69.7408 20.3188C69.9315 20.4055 70.0832 20.5361 70.1959 20.7095C70.3084 20.8827 70.3869 21.086 70.4302 21.3198L72.107 21.2417C72.0463 20.7913 71.8944 20.3929 71.6519 20.0464C71.4179 19.6911 71.0883 19.4137 70.6636 19.2144C70.2391 19.0064 69.7151 18.9019 69.0914 18.9019C68.1294 18.9019 67.3968 19.1059 66.8941 19.5132L66.7203 19.6685C66.3421 20.0448 66.1529 20.5177 66.1529 21.0864L66.1568 21.2329C66.1749 21.5673 66.256 21.8524 66.4 22.0874L66.4703 22.186C66.6475 22.4116 66.9147 22.604 67.2711 22.7632C67.6783 22.9365 68.2373 23.0833 68.9478 23.2046C69.3723 23.2826 69.6931 23.361 69.9097 23.439C70.1264 23.517 70.2741 23.6084 70.3521 23.7124C70.43 23.8164 70.4693 23.9462 70.4693 24.1021L70.4634 24.1997C70.4388 24.4193 70.3282 24.586 70.1314 24.6997C69.9148 24.821 69.6111 24.8823 69.2213 24.8823C68.7448 24.8823 68.3848 24.7826 68.1422 24.5835C67.8995 24.3842 67.7477 24.1018 67.6871 23.7378L65.984 23.8159C66.0186 24.2665 66.1614 24.6696 66.4127 25.0249C66.664 25.3802 67.0197 25.6576 67.4791 25.8569C67.947 26.0562 68.5231 26.1557 69.2076 26.1558C69.8056 26.1558 70.3261 26.0784 70.7681 25.9224C71.2188 25.7577 71.5655 25.5185 71.8082 25.2065C72.0279 24.9336 72.1518 24.6111 72.1793 24.2388L72.1851 24.0757ZM27.481 16.77L29.9508 26.0005H31.8365L33.4478 19.6821L35.0601 26.0005H36.9322L39.4019 16.77H37.608L35.9312 23.6597L34.2281 16.77H32.6549L30.9517 23.6597L29.2623 16.77H27.481ZM50.9742 20.2212C51.3439 20.2515 51.6536 20.3887 51.9039 20.6313C52.1899 20.9 52.3507 21.3161 52.3853 21.8794H49.1744C49.2437 21.3421 49.4216 20.93 49.7076 20.644C50.0022 20.3582 50.3702 20.2154 50.8121 20.2153L50.9742 20.2212ZM58.398 20.2212C58.7677 20.2515 59.0774 20.3887 59.3277 20.6313C59.6137 20.9 59.7745 21.3161 59.8092 21.8794H56.5982C56.6675 21.3421 56.8454 20.93 57.1314 20.644C57.426 20.3582 57.794 20.2153 58.2359 20.2153L58.398 20.2212ZM40.3355 16.77V26.0005H41.9996V21.9829C41.9996 21.4196 42.1343 20.9904 42.4029 20.6958C42.6715 20.4013 43.0315 20.2544 43.482 20.2544C43.8892 20.2545 44.1879 20.3972 44.3785 20.6831L44.4459 20.7935C44.5919 21.0674 44.6646 21.4509 44.6646 21.9438V26.0005H46.3287V21.5415C46.3287 21.0215 46.2372 20.5613 46.0552 20.1626C45.8819 19.7642 45.6175 19.4563 45.2623 19.2397C44.9158 19.0147 44.4871 18.9019 43.9761 18.9019C43.6123 18.9019 43.2784 18.9673 42.9752 19.0972C42.6718 19.2185 42.4156 19.4094 42.2076 19.6694C42.1283 19.7653 42.0587 19.8715 41.9996 19.9888V16.77H40.3355ZM62.7593 16.77V24.3618C62.7593 24.9338 62.9111 25.3499 63.2144 25.6099C63.5177 25.8698 63.9208 26.0005 64.4234 26.0005H65.4498V24.7134H64.9429C64.7786 24.7133 64.6486 24.6699 64.5533 24.5835C64.4883 24.5185 64.4475 24.4287 64.4312 24.3149L64.4234 24.1929V16.77H62.7593ZM65.9234 18.3696C65.9323 18.3623 65.9408 18.3544 65.9498 18.3472L66.1158 18.2202C66.9626 17.6112 68.0182 17.4019 69.0914 17.4019C69.8651 17.4019 70.6216 17.529 71.3004 17.856H71.3013C71.3088 17.8595 71.3163 17.8631 71.3238 17.8667H71.3228C71.9492 18.1649 72.4846 18.6013 72.8795 19.186H72.8804C72.8826 19.1891 72.8841 19.1927 72.8863 19.1958C72.8921 19.2044 72.8991 19.2125 72.9049 19.2212H72.9039C73.2795 19.7698 73.505 20.3856 73.5933 21.0415C73.6494 21.4583 73.5278 21.8797 73.2584 22.2026C73.232 22.2343 73.2031 22.2633 73.1744 22.2925C73.1773 22.2971 73.1812 22.3015 73.1842 22.3062H73.1822C73.5382 22.8528 73.6851 23.4652 73.6851 24.0757C73.6851 24.8144 73.4683 25.5251 72.9908 26.1274L72.9918 26.1284C72.9894 26.1315 72.9864 26.1341 72.984 26.1372C72.9812 26.1407 72.9789 26.1445 72.9761 26.1479L72.9752 26.147C72.5277 26.7135 71.9334 27.0928 71.2828 27.3306C71.2776 27.3325 71.2724 27.3346 71.2672 27.3364C70.6275 27.5622 69.931 27.6558 69.2076 27.6558C68.387 27.6557 67.5973 27.5376 66.8912 27.2368L66.8814 27.2329C66.7566 27.1787 66.6357 27.1177 66.5172 27.0532C66.2452 27.3287 65.8675 27.5005 65.4498 27.5005H64.4234C63.6579 27.5005 62.8776 27.2969 62.2379 26.7485C62.0641 26.5995 61.9195 26.4359 61.7984 26.2632C61.6077 26.4577 61.3964 26.6361 61.1646 26.7974L61.1656 26.7983C60.3162 27.3955 59.3252 27.6558 58.275 27.6558C57.365 27.6558 56.4954 27.4604 55.7193 27.0132C55.7139 27.0101 55.7081 27.0076 55.7027 27.0044C55.2668 26.7458 54.8898 26.4242 54.5699 26.0503C54.3315 26.329 54.0549 26.5789 53.7408 26.7974L53.7418 26.7983C52.8924 27.3954 51.9014 27.6558 50.8511 27.6558C49.9413 27.6557 49.0716 27.4604 48.2955 27.0132C48.2901 27.0101 48.2843 27.0076 48.2789 27.0044C48.0738 26.8827 47.8824 26.7461 47.7027 26.5981C47.4715 27.1285 46.9442 27.5005 46.3287 27.5005H44.6646C44.0839 27.5005 43.5809 27.1697 43.3316 26.687C43.0823 27.1695 42.5801 27.5005 41.9996 27.5005H40.3355C39.5073 27.5004 38.8358 26.8286 38.8355 26.0005V24.6899L38.3814 26.3882C38.2058 27.044 37.6111 27.5004 36.9322 27.5005H35.0601C34.3745 27.5005 33.7765 27.0349 33.607 26.3706L33.4478 25.7485L33.2896 26.3706C33.1202 27.0348 32.5219 27.5003 31.8365 27.5005H29.9508C29.2719 27.5004 28.6771 27.044 28.5015 26.3882L26.0318 17.1577C25.9113 16.7073 26.0077 16.2268 26.2916 15.8569C26.5755 15.4871 27.0148 15.27 27.481 15.27H29.2623L29.3902 15.2759C30.0262 15.3301 30.565 15.7836 30.7193 16.4126L30.9576 17.3843L31.1988 16.4097L31.2349 16.2866C31.4399 15.6834 32.0084 15.2701 32.6549 15.27H34.2281L34.356 15.2759C34.991 15.3299 35.5288 15.782 35.6842 16.4097L35.9195 17.3638L36.1509 16.4155L36.1861 16.2915C36.3896 15.6857 36.9595 15.27 37.608 15.27H39.4019C39.5619 15.27 39.7182 15.2977 39.8668 15.3462C40.0144 15.2976 40.1717 15.27 40.3355 15.27H41.9996C42.828 15.27 43.4996 15.9416 43.4996 16.77V17.4282C43.6572 17.4109 43.8165 17.4019 43.9761 17.4019C44.6946 17.4019 45.4098 17.5599 46.0426 17.9595H46.0435C46.0462 17.9611 46.0487 17.9628 46.0513 17.9644C46.0609 17.9704 46.0711 17.9758 46.0806 17.9819L46.0787 17.9829C46.5142 18.2556 46.8679 18.609 47.1392 19.0259C47.4548 18.6535 47.8264 18.3323 48.2564 18.0728L48.2662 18.0669C49.0394 17.6083 49.9045 17.4019 50.8121 17.4019V18.9019C50.1362 18.9019 49.5421 19.0536 49.0308 19.3569C48.5283 19.6603 48.1382 20.0854 47.8609 20.6313L47.7642 20.8374C47.552 21.3283 47.4449 21.892 47.4449 22.5288C47.4449 23.2567 47.5836 23.894 47.8609 24.4399C48.1382 24.9859 48.5332 25.411 49.0445 25.7144C49.5557 26.0089 50.158 26.1557 50.8511 26.1558C51.6485 26.1558 52.3248 25.9608 52.8795 25.5708C53.4426 25.1808 53.8197 24.648 54.0103 23.9722L52.3072 23.8677C52.2119 24.171 52.039 24.4102 51.7877 24.5835C51.545 24.7482 51.2365 24.8296 50.8638 24.8296C50.3702 24.8295 49.9717 24.6785 49.6685 24.3755C49.3739 24.0635 49.2091 23.6032 49.1744 22.9966H54.1011V22.6196C54.1011 21.8398 53.9664 21.1722 53.6978 20.6177C53.4292 20.0633 53.0439 19.6388 52.5416 19.3442C52.0476 19.0496 51.4707 18.9019 50.8121 18.9019V17.4019C51.7013 17.4019 52.5517 17.6038 53.3101 18.0562H53.3092C53.7776 18.3323 54.1756 18.6825 54.5035 19.0952C54.831 18.6926 55.2234 18.3484 55.6802 18.0728L55.69 18.0669C56.4632 17.6083 57.3284 17.4019 58.2359 17.4019V18.9019C57.5599 18.9019 56.966 19.0536 56.4547 19.3569C55.9521 19.6603 55.562 20.0854 55.2847 20.6313C55.0076 21.1686 54.8687 21.8011 54.8687 22.5288C54.8687 23.2567 55.0075 23.894 55.2847 24.4399C55.5621 24.9859 55.957 25.411 56.4683 25.7144C56.9796 26.0089 57.5818 26.1558 58.275 26.1558C59.0723 26.1558 59.7486 25.9608 60.3033 25.5708C60.8664 25.1808 61.2435 24.648 61.4342 23.9722L59.731 23.8677C59.6357 24.171 59.4619 24.4102 59.2105 24.5835C58.9679 24.7479 58.6601 24.8296 58.2877 24.8296C57.794 24.8295 57.3956 24.6785 57.0924 24.3755C56.7977 24.0635 56.6329 23.6032 56.5982 22.9966H61.525V22.6196C61.5249 21.8398 61.3903 21.1722 61.1217 20.6177C60.8531 20.0634 60.4677 19.6388 59.9654 19.3442C59.4714 19.0496 58.8946 18.9019 58.2359 18.9019V17.4019C59.121 17.4019 59.9665 17.6023 60.7222 18.0503H60.7232L60.733 18.0562H60.732C60.9188 18.1662 61.0948 18.2875 61.2593 18.4204V16.77C61.2593 15.9416 61.9309 15.27 62.7593 15.27H64.4234C65.2517 15.2702 65.9234 15.9417 65.9234 16.77V18.3696Z" fill="black" fill-opacity="0.3" style="fill:black;fill-opacity:0.3;"/>
<mask id="path-5-outside-1_2080_109" maskUnits="userSpaceOnUse" x="6.26392" y="4.64404" width="51" height="7" fill="black">
<rect fill="white" x="6.26392" y="4.64404" width="51" height="7"/>
<path d="M9.47792 10.072C9.17392 10.072 8.88792 10.016 8.61992 9.90404C8.35192 9.78804 8.11592 9.62804 7.91192 9.42404C7.70792 9.22004 7.54792 8.98404 7.43192 8.71604C7.31992 8.44804 7.26392 8.16204 7.26392 7.85804C7.26392 7.55004 7.31992 7.26404 7.43192 7.00004C7.54792 6.73204 7.70792 6.49604 7.91192 6.29204C8.11592 6.08804 8.35192 5.93004 8.61992 5.81804C8.88792 5.70204 9.17392 5.64404 9.47792 5.64404C9.78592 5.64404 10.0719 5.70204 10.3359 5.81804C10.6039 5.93004 10.8399 6.08804 11.0439 6.29204C11.2479 6.49604 11.4059 6.73204 11.5179 7.00004C11.6339 7.26404 11.6919 7.55004 11.6919 7.85804C11.6919 8.16204 11.6339 8.44804 11.5179 8.71604C11.4059 8.98404 11.2479 9.22004 11.0439 9.42404C10.8399 9.62804 10.6039 9.78804 10.3359 9.90404C10.0719 10.016 9.78592 10.072 9.47792 10.072ZM9.47792 9.56804C9.70992 9.56804 9.92792 9.52404 10.1319 9.43604C10.3359 9.34804 10.5159 9.22604 10.6719 9.07004C10.8319 8.91404 10.9559 8.73204 11.0439 8.52404C11.1319 8.31604 11.1759 8.09404 11.1759 7.85804C11.1759 7.62204 11.1319 7.40004 11.0439 7.19204C10.9559 6.98404 10.8319 6.80204 10.6719 6.64604C10.5159 6.49004 10.3359 6.36804 10.1319 6.28004C9.92792 6.19204 9.70992 6.14804 9.47792 6.14804C9.24592 6.14804 9.02792 6.19204 8.82392 6.28004C8.61992 6.36804 8.43792 6.49004 8.27792 6.64604C8.12192 6.80204 7.99992 6.98404 7.91192 7.19204C7.82392 7.40004 7.77992 7.62204 7.77992 7.85804C7.77992 8.09404 7.82392 8.31604 7.91192 8.52404C7.99992 8.73204 8.12192 8.91404 8.27792 9.07004C8.43792 9.22604 8.61992 9.34804 8.82392 9.43604C9.02792 9.52404 9.24592 9.56804 9.47792 9.56804ZM9.50192 9.11204C9.26592 9.11204 9.05592 9.06004 8.87192 8.95604C8.69192 8.84804 8.54992 8.70004 8.44592 8.51204C8.34592 8.32004 8.29592 8.10204 8.29592 7.85804C8.29592 7.61004 8.34592 7.39404 8.44592 7.21004C8.54992 7.02204 8.69192 6.87604 8.87192 6.77204C9.05592 6.66404 9.26592 6.61004 9.50192 6.61004C9.70192 6.61004 9.88192 6.65004 10.0419 6.73004C10.2019 6.80604 10.3319 6.91604 10.4319 7.06004C10.5319 7.20004 10.5899 7.36004 10.6059 7.54004L10.0779 7.57004C10.0579 7.42204 9.99392 7.30204 9.88592 7.21004C9.78192 7.11804 9.65392 7.07204 9.50192 7.07204C9.36992 7.07204 9.25192 7.10604 9.14792 7.17404C9.04792 7.23804 8.96792 7.33004 8.90792 7.45004C8.85192 7.56604 8.82392 7.70204 8.82392 7.85804C8.82392 8.01404 8.85192 8.15204 8.90792 8.27204C8.96792 8.39204 9.04792 8.48604 9.14792 8.55404C9.25192 8.61804 9.36992 8.65004 9.50192 8.65004C9.60592 8.65004 9.69992 8.62804 9.78392 8.58404C9.87192 8.53604 9.94192 8.47204 9.99392 8.39204C10.0499 8.30804 10.0859 8.21204 10.1019 8.10404L10.6299 8.13404C10.6099 8.32204 10.5479 8.49004 10.4439 8.63804C10.3439 8.78604 10.2119 8.90204 10.0479 8.98604C9.88792 9.07004 9.70592 9.11204 9.50192 9.11204Z"/>
<path d="M14.1469 10.096C13.7349 10.096 13.3809 10.008 13.0849 9.83204C12.7889 9.65204 12.5609 9.39604 12.4009 9.06404C12.2409 8.73204 12.1609 8.33604 12.1609 7.87604C12.1609 7.41604 12.2409 7.02004 12.4009 6.68804C12.5609 6.35204 12.7889 6.09404 13.0849 5.91404C13.3809 5.73404 13.7349 5.64404 14.1469 5.64404C14.5629 5.64404 14.9189 5.73404 15.2149 5.91404C15.5149 6.09404 15.7429 6.35204 15.8989 6.68804C16.0589 7.02004 16.1389 7.41604 16.1389 7.87604C16.1389 8.33604 16.0589 8.73204 15.8989 9.06404C15.7429 9.39604 15.5149 9.65204 15.2149 9.83204C14.9189 10.008 14.5629 10.096 14.1469 10.096ZM14.1469 9.50204C14.4229 9.50204 14.6589 9.43804 14.8549 9.31004C15.0549 9.18204 15.2069 8.99804 15.3109 8.75804C15.4149 8.51404 15.4669 8.22004 15.4669 7.87604C15.4669 7.53204 15.4149 7.23804 15.3109 6.99404C15.2069 6.75004 15.0549 6.56404 14.8549 6.43604C14.6589 6.30404 14.4229 6.23804 14.1469 6.23804C13.8749 6.23804 13.6409 6.30404 13.4449 6.43604C13.2489 6.56404 13.0969 6.75004 12.9889 6.99404C12.8849 7.23804 12.8329 7.53204 12.8329 7.87604C12.8329 8.22004 12.8849 8.51404 12.9889 8.75804C13.0969 8.99804 13.2489 9.18204 13.4449 9.31004C13.6409 9.43804 13.8749 9.50204 14.1469 9.50204Z"/>
<path d="M16.7928 10.9V6.80804H17.3928L17.4108 7.49204L17.3388 7.45604C17.4188 7.22004 17.5508 7.04204 17.7348 6.92204C17.9188 6.79804 18.1308 6.73604 18.3708 6.73604C18.6828 6.73604 18.9388 6.81404 19.1388 6.97004C19.3428 7.12204 19.4928 7.32404 19.5888 7.57604C19.6888 7.82804 19.7388 8.10404 19.7388 8.40404C19.7388 8.70404 19.6888 8.98004 19.5888 9.23204C19.4928 9.48404 19.3428 9.68804 19.1388 9.84404C18.9388 9.99604 18.6828 10.072 18.3708 10.072C18.2108 10.072 18.0608 10.044 17.9208 9.98804C17.7808 9.93204 17.6608 9.85404 17.5608 9.75404C17.4648 9.65004 17.3968 9.52804 17.3568 9.38804L17.4288 9.31604V10.9H16.7928ZM18.2568 9.52004C18.5128 9.52004 18.7128 9.42204 18.8568 9.22604C19.0048 9.03004 19.0788 8.75604 19.0788 8.40404C19.0788 8.05204 19.0048 7.77804 18.8568 7.58204C18.7128 7.38604 18.5128 7.28804 18.2568 7.28804C18.0888 7.28804 17.9428 7.33004 17.8188 7.41404C17.6948 7.49404 17.5988 7.61804 17.5308 7.78604C17.4628 7.95404 17.4288 8.16004 17.4288 8.40404C17.4288 8.64804 17.4608 8.85404 17.5248 9.02204C17.5928 9.19004 17.6888 9.31604 17.8128 9.40004C17.9408 9.48004 18.0888 9.52004 18.2568 9.52004Z"/>
<path d="M21.6386 10.072C21.3266 10.072 21.0566 10.004 20.8286 9.86804C20.6046 9.73204 20.4306 9.53804 20.3066 9.28604C20.1866 9.03404 20.1266 8.74004 20.1266 8.40404C20.1266 8.06804 20.1866 7.77604 20.3066 7.52804C20.4306 7.27604 20.6046 7.08204 20.8286 6.94604C21.0526 6.80604 21.3166 6.73604 21.6206 6.73604C21.9086 6.73604 22.1626 6.80404 22.3826 6.94004C22.6026 7.07204 22.7726 7.26404 22.8926 7.51604C23.0166 7.76804 23.0786 8.07204 23.0786 8.42804V8.59004H20.7866C20.8026 8.90204 20.8846 9.13604 21.0326 9.29204C21.1846 9.44804 21.3886 9.52604 21.6446 9.52604C21.8326 9.52604 21.9886 9.48204 22.1126 9.39404C22.2366 9.30604 22.3226 9.18804 22.3706 9.04004L23.0306 9.08204C22.9466 9.37804 22.7806 9.61804 22.5326 9.80204C22.2886 9.98204 21.9906 10.072 21.6386 10.072ZM20.7866 8.11004H22.4066C22.3866 7.82604 22.3046 7.61604 22.1606 7.48004C22.0206 7.34404 21.8406 7.27604 21.6206 7.27604C21.3926 7.27604 21.2046 7.34804 21.0566 7.49204C20.9126 7.63204 20.8226 7.83804 20.7866 8.11004Z"/>
<path d="M23.663 10V6.80804H24.245L24.269 7.66004L24.191 7.61804C24.227 7.41004 24.295 7.24204 24.395 7.11404C24.495 6.98604 24.617 6.89204 24.761 6.83204C24.905 6.76804 25.061 6.73604 25.229 6.73604C25.469 6.73604 25.667 6.79004 25.823 6.89804C25.983 7.00204 26.103 7.14604 26.183 7.33004C26.267 7.51004 26.309 7.71604 26.309 7.94804V10H25.673V8.14004C25.673 7.95204 25.653 7.79404 25.613 7.66604C25.573 7.53804 25.507 7.44004 25.415 7.37204C25.323 7.30404 25.203 7.27004 25.055 7.27004C24.831 7.27004 24.649 7.34404 24.509 7.49204C24.369 7.64004 24.299 7.85604 24.299 8.14004V10H23.663Z"/>
<path d="M28.75 10.096C28.41 10.096 28.114 10.034 27.862 9.91004C27.614 9.78604 27.418 9.61404 27.274 9.39404C27.13 9.17404 27.046 8.91804 27.022 8.62604L27.688 8.58404C27.716 8.78404 27.774 8.95404 27.862 9.09404C27.95 9.23004 28.068 9.33404 28.216 9.40604C28.368 9.47404 28.55 9.50804 28.762 9.50804C28.946 9.50804 29.102 9.48604 29.23 9.44204C29.362 9.39404 29.462 9.32404 29.53 9.23204C29.598 9.14004 29.632 9.02804 29.632 8.89604C29.632 8.77604 29.602 8.67004 29.542 8.57804C29.486 8.48204 29.376 8.39604 29.212 8.32004C29.052 8.24004 28.816 8.16204 28.504 8.08604C28.164 8.00204 27.892 7.91004 27.688 7.81004C27.484 7.71004 27.336 7.58604 27.244 7.43804C27.156 7.28604 27.112 7.10004 27.112 6.88004C27.112 6.63604 27.17 6.42204 27.286 6.23804C27.406 6.05004 27.576 5.90404 27.796 5.80004C28.016 5.69604 28.28 5.64404 28.588 5.64404C28.912 5.64404 29.188 5.70404 29.416 5.82404C29.648 5.94404 29.83 6.10804 29.962 6.31604C30.098 6.52404 30.182 6.76204 30.214 7.03004L29.548 7.06604C29.528 6.90204 29.478 6.75804 29.398 6.63404C29.318 6.50604 29.21 6.40804 29.074 6.34004C28.938 6.26804 28.772 6.23204 28.576 6.23204C28.328 6.23204 28.132 6.29004 27.988 6.40604C27.848 6.51804 27.778 6.66804 27.778 6.85604C27.778 6.97604 27.806 7.07804 27.862 7.16204C27.922 7.24204 28.026 7.31204 28.174 7.37204C28.326 7.43204 28.54 7.49604 28.816 7.56404C29.184 7.64804 29.476 7.75204 29.692 7.87604C29.912 7.99604 30.068 8.13804 30.16 8.30204C30.252 8.46604 30.298 8.65204 30.298 8.86004C30.298 9.11204 30.232 9.33204 30.1 9.52004C29.972 9.70404 29.792 9.84604 29.56 9.94604C29.328 10.046 29.058 10.096 28.75 10.096Z"/>
<path d="M32.0971 10C31.7931 10 31.5691 9.93004 31.4251 9.79004C31.2811 9.65004 31.2091 9.43204 31.2091 9.13604V6.05804H31.8451V9.08804C31.8451 9.23604 31.8771 9.33804 31.9411 9.39404C32.0051 9.45004 32.1031 9.47804 32.2351 9.47804H32.6911V10H32.0971ZM30.7231 7.33004V6.80804H32.6911V7.33004H30.7231Z"/>
<path d="M33.3034 10V6.80804H33.8854L33.9094 7.65404L33.8554 7.63604C33.8994 7.34804 33.9874 7.13804 34.1194 7.00604C34.2554 6.87404 34.4374 6.80804 34.6654 6.80804H34.9714V7.37804H34.6654C34.5054 7.37804 34.3714 7.40404 34.2634 7.45604C34.1554 7.50804 34.0734 7.58804 34.0174 7.69604C33.9654 7.80404 33.9394 7.94404 33.9394 8.11604V10H33.3034Z"/>
<path d="M36.6784 10.072C36.3664 10.072 36.0964 10.004 35.8684 9.86804C35.6444 9.73204 35.4704 9.53804 35.3464 9.28604C35.2264 9.03404 35.1664 8.74004 35.1664 8.40404C35.1664 8.06804 35.2264 7.77604 35.3464 7.52804C35.4704 7.27604 35.6444 7.08204 35.8684 6.94604C36.0924 6.80604 36.3564 6.73604 36.6604 6.73604C36.9484 6.73604 37.2024 6.80404 37.4224 6.94004C37.6424 7.07204 37.8124 7.26404 37.9324 7.51604C38.0564 7.76804 38.1184 8.07204 38.1184 8.42804V8.59004H35.8264C35.8424 8.90204 35.9244 9.13604 36.0724 9.29204C36.2244 9.44804 36.4284 9.52604 36.6844 9.52604C36.8724 9.52604 37.0284 9.48204 37.1524 9.39404C37.2764 9.30604 37.3624 9.18804 37.4104 9.04004L38.0704 9.08204C37.9864 9.37804 37.8204 9.61804 37.5724 9.80204C37.3284 9.98204 37.0304 10.072 36.6784 10.072ZM35.8264 8.11004H37.4464C37.4264 7.82604 37.3444 7.61604 37.2004 7.48004C37.0604 7.34404 36.8804 7.27604 36.6604 7.27604C36.4324 7.27604 36.2444 7.34804 36.0964 7.49204C35.9524 7.63204 35.8624 7.83804 35.8264 8.11004Z"/>
<path d="M40.0169 10.072C39.7049 10.072 39.4349 10.004 39.2069 9.86804C38.9829 9.73204 38.8089 9.53804 38.6849 9.28604C38.5649 9.03404 38.5049 8.74004 38.5049 8.40404C38.5049 8.06804 38.5649 7.77604 38.6849 7.52804C38.8089 7.27604 38.9829 7.08204 39.2069 6.94604C39.4309 6.80604 39.6949 6.73604 39.9989 6.73604C40.2869 6.73604 40.5409 6.80404 40.7609 6.94004C40.9809 7.07204 41.1509 7.26404 41.2709 7.51604C41.3949 7.76804 41.4569 8.07204 41.4569 8.42804V8.59004H39.1649C39.1809 8.90204 39.2629 9.13604 39.4109 9.29204C39.5629 9.44804 39.7669 9.52604 40.0229 9.52604C40.2109 9.52604 40.3669 9.48204 40.4909 9.39404C40.6149 9.30604 40.7009 9.18804 40.7489 9.04004L41.4089 9.08204C41.3249 9.37804 41.1589 9.61804 40.9109 9.80204C40.6669 9.98204 40.3689 10.072 40.0169 10.072ZM39.1649 8.11004H40.7849C40.7649 7.82604 40.6829 7.61604 40.5389 7.48004C40.3989 7.34404 40.2189 7.27604 39.9989 7.27604C39.7709 7.27604 39.5829 7.34804 39.4349 7.49204C39.2909 7.63204 39.2009 7.83804 39.1649 8.11004Z"/>
<path d="M43.1481 10C42.8441 10 42.6201 9.93004 42.4761 9.79004C42.3321 9.65004 42.2601 9.43204 42.2601 9.13604V6.05804H42.8961V9.08804C42.8961 9.23604 42.9281 9.33804 42.9921 9.39404C43.0561 9.45004 43.1541 9.47804 43.2861 9.47804H43.7421V10H43.1481ZM41.7741 7.33004V6.80804H43.7421V7.33004H41.7741Z"/>
<path d="M44.3559 10V5.74004H45.2439L46.5099 9.23804L47.7759 5.74004H48.6639V10H48.0159V6.88004L46.8699 9.99404H46.1499L45.0039 6.88004V10H44.3559Z"/>
<path d="M50.4032 10.072C50.0712 10.072 49.8052 9.99604 49.6052 9.84404C49.4092 9.69204 49.3112 9.47804 49.3112 9.20204C49.3112 8.92604 49.3932 8.71204 49.5572 8.56004C49.7252 8.40404 49.9832 8.29204 50.3312 8.22404L51.4292 8.01404C51.4292 7.76604 51.3712 7.58204 51.2552 7.46204C51.1392 7.33804 50.9672 7.27604 50.7392 7.27604C50.5352 7.27604 50.3752 7.32204 50.2592 7.41404C50.1432 7.50204 50.0632 7.63404 50.0192 7.81004L49.3652 7.76804C49.4252 7.44804 49.5732 7.19604 49.8092 7.01204C50.0492 6.82804 50.3592 6.73604 50.7392 6.73604C51.1712 6.73604 51.4992 6.85204 51.7232 7.08404C51.9512 7.31204 52.0652 7.63404 52.0652 8.05004V9.29204C52.0652 9.36804 52.0772 9.42204 52.1012 9.45404C52.1292 9.48204 52.1732 9.49604 52.2332 9.49604H52.3472V10C52.3272 10.004 52.2952 10.008 52.2512 10.012C52.2072 10.016 52.1612 10.018 52.1132 10.018C51.9772 10.018 51.8592 9.99604 51.7592 9.95204C51.6632 9.90804 51.5912 9.83604 51.5432 9.73604C51.4952 9.63204 51.4712 9.49404 51.4712 9.32204L51.5372 9.35204C51.5052 9.49204 51.4352 9.61604 51.3272 9.72404C51.2232 9.83204 51.0892 9.91804 50.9252 9.98204C50.7652 10.042 50.5912 10.072 50.4032 10.072ZM50.5052 9.56804C50.6972 9.56804 50.8612 9.53204 50.9972 9.46004C51.1332 9.38404 51.2392 9.28004 51.3152 9.14804C51.3912 9.01604 51.4292 8.86604 51.4292 8.69804V8.49404L50.4932 8.67404C50.3012 8.71004 50.1652 8.76804 50.0852 8.84804C50.0092 8.92404 49.9712 9.02204 49.9712 9.14204C49.9712 9.27804 50.0172 9.38404 50.1092 9.46004C50.2052 9.53204 50.3372 9.56804 50.5052 9.56804Z"/>
<path d="M52.8242 10.9V6.80804H53.4242L53.4422 7.49204L53.3702 7.45604C53.4502 7.22004 53.5822 7.04204 53.7662 6.92204C53.9502 6.79804 54.1622 6.73604 54.4022 6.73604C54.7142 6.73604 54.9702 6.81404 55.1702 6.97004C55.3742 7.12204 55.5242 7.32404 55.6202 7.57604C55.7202 7.82804 55.7702 8.10404 55.7702 8.40404C55.7702 8.70404 55.7202 8.98004 55.6202 9.23204C55.5242 9.48404 55.3742 9.68804 55.1702 9.84404C54.9702 9.99604 54.7142 10.072 54.4022 10.072C54.2422 10.072 54.0922 10.044 53.9522 9.98804C53.8122 9.93204 53.6922 9.85404 53.5922 9.75404C53.4962 9.65004 53.4282 9.52804 53.3882 9.38804L53.4602 9.31604V10.9H52.8242ZM54.2882 9.52004C54.5442 9.52004 54.7442 9.42204 54.8882 9.22604C55.0362 9.03004 55.1102 8.75604 55.1102 8.40404C55.1102 8.05204 55.0362 7.77804 54.8882 7.58204C54.7442 7.38604 54.5442 7.28804 54.2882 7.28804C54.1202 7.28804 53.9742 7.33004 53.8502 7.41404C53.7262 7.49404 53.6302 7.61804 53.5622 7.78604C53.4942 7.95404 53.4602 8.16004 53.4602 8.40404C53.4602 8.64804 53.4922 8.85404 53.5562 9.02204C53.6242 9.19004 53.7202 9.31604 53.8442 9.40004C53.9722 9.48004 54.1202 9.52004 54.2882 9.52004Z"/>
</mask>
<path d="M9.47792 10.072C9.17392 10.072 8.88792 10.016 8.61992 9.90404C8.35192 9.78804 8.11592 9.62804 7.91192 9.42404C7.70792 9.22004 7.54792 8.98404 7.43192 8.71604C7.31992 8.44804 7.26392 8.16204 7.26392 7.85804C7.26392 7.55004 7.31992 7.26404 7.43192 7.00004C7.54792 6.73204 7.70792 6.49604 7.91192 6.29204C8.11592 6.08804 8.35192 5.93004 8.61992 5.81804C8.88792 5.70204 9.17392 5.64404 9.47792 5.64404C9.78592 5.64404 10.0719 5.70204 10.3359 5.81804C10.6039 5.93004 10.8399 6.08804 11.0439 6.29204C11.2479 6.49604 11.4059 6.73204 11.5179 7.00004C11.6339 7.26404 11.6919 7.55004 11.6919 7.85804C11.6919 8.16204 11.6339 8.44804 11.5179 8.71604C11.4059 8.98404 11.2479 9.22004 11.0439 9.42404C10.8399 9.62804 10.6039 9.78804 10.3359 9.90404C10.0719 10.016 9.78592 10.072 9.47792 10.072ZM9.47792 9.56804C9.70992 9.56804 9.92792 9.52404 10.1319 9.43604C10.3359 9.34804 10.5159 9.22604 10.6719 9.07004C10.8319 8.91404 10.9559 8.73204 11.0439 8.52404C11.1319 8.31604 11.1759 8.09404 11.1759 7.85804C11.1759 7.62204 11.1319 7.40004 11.0439 7.19204C10.9559 6.98404 10.8319 6.80204 10.6719 6.64604C10.5159 6.49004 10.3359 6.36804 10.1319 6.28004C9.92792 6.19204 9.70992 6.14804 9.47792 6.14804C9.24592 6.14804 9.02792 6.19204 8.82392 6.28004C8.61992 6.36804 8.43792 6.49004 8.27792 6.64604C8.12192 6.80204 7.99992 6.98404 7.91192 7.19204C7.82392 7.40004 7.77992 7.62204 7.77992 7.85804C7.77992 8.09404 7.82392 8.31604 7.91192 8.52404C7.99992 8.73204 8.12192 8.91404 8.27792 9.07004C8.43792 9.22604 8.61992 9.34804 8.82392 9.43604C9.02792 9.52404 9.24592 9.56804 9.47792 9.56804ZM9.50192 9.11204C9.26592 9.11204 9.05592 9.06004 8.87192 8.95604C8.69192 8.84804 8.54992 8.70004 8.44592 8.51204C8.34592 8.32004 8.29592 8.10204 8.29592 7.85804C8.29592 7.61004 8.34592 7.39404 8.44592 7.21004C8.54992 7.02204 8.69192 6.87604 8.87192 6.77204C9.05592 6.66404 9.26592 6.61004 9.50192 6.61004C9.70192 6.61004 9.88192 6.65004 10.0419 6.73004C10.2019 6.80604 10.3319 6.91604 10.4319 7.06004C10.5319 7.20004 10.5899 7.36004 10.6059 7.54004L10.0779 7.57004C10.0579 7.42204 9.99392 7.30204 9.88592 7.21004C9.78192 7.11804 9.65392 7.07204 9.50192 7.07204C9.36992 7.07204 9.25192 7.10604 9.14792 7.17404C9.04792 7.23804 8.96792 7.33004 8.90792 7.45004C8.85192 7.56604 8.82392 7.70204 8.82392 7.85804C8.82392 8.01404 8.85192 8.15204 8.90792 8.27204C8.96792 8.39204 9.04792 8.48604 9.14792 8.55404C9.25192 8.61804 9.36992 8.65004 9.50192 8.65004C9.60592 8.65004 9.69992 8.62804 9.78392 8.58404C9.87192 8.53604 9.94192 8.47204 9.99392 8.39204C10.0499 8.30804 10.0859 8.21204 10.1019 8.10404L10.6299 8.13404C10.6099 8.32204 10.5479 8.49004 10.4439 8.63804C10.3439 8.78604 10.2119 8.90204 10.0479 8.98604C9.88792 9.07004 9.70592 9.11204 9.50192 9.11204Z" fill="white" style="fill:white;fill-opacity:1;"/>
<path d="M14.1469 10.096C13.7349 10.096 13.3809 10.008 13.0849 9.83204C12.7889 9.65204 12.5609 9.39604 12.4009 9.06404C12.2409 8.73204 12.1609 8.33604 12.1609 7.87604C12.1609 7.41604 12.2409 7.02004 12.4009 6.68804C12.5609 6.35204 12.7889 6.09404 13.0849 5.91404C13.3809 5.73404 13.7349 5.64404 14.1469 5.64404C14.5629 5.64404 14.9189 5.73404 15.2149 5.91404C15.5149 6.09404 15.7429 6.35204 15.8989 6.68804C16.0589 7.02004 16.1389 7.41604 16.1389 7.87604C16.1389 8.33604 16.0589 8.73204 15.8989 9.06404C15.7429 9.39604 15.5149 9.65204 15.2149 9.83204C14.9189 10.008 14.5629 10.096 14.1469 10.096ZM14.1469 9.50204C14.4229 9.50204 14.6589 9.43804 14.8549 9.31004C15.0549 9.18204 15.2069 8.99804 15.3109 8.75804C15.4149 8.51404 15.4669 8.22004 15.4669 7.87604C15.4669 7.53204 15.4149 7.23804 15.3109 6.99404C15.2069 6.75004 15.0549 6.56404 14.8549 6.43604C14.6589 6.30404 14.4229 6.23804 14.1469 6.23804C13.8749 6.23804 13.6409 6.30404 13.4449 6.43604C13.2489 6.56404 13.0969 6.75004 12.9889 6.99404C12.8849 7.23804 12.8329 7.53204 12.8329 7.87604C12.8329 8.22004 12.8849 8.51404 12.9889 8.75804C13.0969 8.99804 13.2489 9.18204 13.4449 9.31004C13.6409 9.43804 13.8749 9.50204 14.1469 9.50204Z" fill="white" style="fill:white;fill-opacity:1;"/>
<path d="M16.7928 10.9V6.80804H17.3928L17.4108 7.49204L17.3388 7.45604C17.4188 7.22004 17.5508 7.04204 17.7348 6.92204C17.9188 6.79804 18.1308 6.73604 18.3708 6.73604C18.6828 6.73604 18.9388 6.81404 19.1388 6.97004C19.3428 7.12204 19.4928 7.32404 19.5888 7.57604C19.6888 7.82804 19.7388 8.10404 19.7388 8.40404C19.7388 8.70404 19.6888 8.98004 19.5888 9.23204C19.4928 9.48404 19.3428 9.68804 19.1388 9.84404C18.9388 9.99604 18.6828 10.072 18.3708 10.072C18.2108 10.072 18.0608 10.044 17.9208 9.98804C17.7808 9.93204 17.6608 9.85404 17.5608 9.75404C17.4648 9.65004 17.3968 9.52804 17.3568 9.38804L17.4288 9.31604V10.9H16.7928ZM18.2568 9.52004C18.5128 9.52004 18.7128 9.42204 18.8568 9.22604C19.0048 9.03004 19.0788 8.75604 19.0788 8.40404C19.0788 8.05204 19.0048 7.77804 18.8568 7.58204C18.7128 7.38604 18.5128 7.28804 18.2568 7.28804C18.0888 7.28804 17.9428 7.33004 17.8188 7.41404C17.6948 7.49404 17.5988 7.61804 17.5308 7.78604C17.4628 7.95404 17.4288 8.16004 17.4288 8.40404C17.4288 8.64804 17.4608 8.85404 17.5248 9.02204C17.5928 9.19004 17.6888 9.31604 17.8128 9.40004C17.9408 9.48004 18.0888 9.52004 18.2568 9.52004Z" fill="white" style="fill:white;fill-opacity:1;"/>
<path d="M21.6386 10.072C21.3266 10.072 21.0566 10.004 20.8286 9.86804C20.6046 9.73204 20.4306 9.53804 20.3066 9.28604C20.1866 9.03404 20.1266 8.74004 20.1266 8.40404C20.1266 8.06804 20.1866 7.77604 20.3066 7.52804C20.4306 7.27604 20.6046 7.08204 20.8286 6.94604C21.0526 6.80604 21.3166 6.73604 21.6206 6.73604C21.9086 6.73604 22.1626 6.80404 22.3826 6.94004C22.6026 7.07204 22.7726 7.26404 22.8926 7.51604C23.0166 7.76804 23.0786 8.07204 23.0786 8.42804V8.59004H20.7866C20.8026 8.90204 20.8846 9.13604 21.0326 9.29204C21.1846 9.44804 21.3886 9.52604 21.6446 9.52604C21.8326 9.52604 21.9886 9.48204 22.1126 9.39404C22.2366 9.30604 22.3226 9.18804 22.3706 9.04004L23.0306 9.08204C22.9466 9.37804 22.7806 9.61804 22.5326 9.80204C22.2886 9.98204 21.9906 10.072 21.6386 10.072ZM20.7866 8.11004H22.4066C22.3866 7.82604 22.3046 7.61604 22.1606 7.48004C22.0206 7.34404 21.8406 7.27604 21.6206 7.27604C21.3926 7.27604 21.2046 7.34804 21.0566 7.49204C20.9126 7.63204 20.8226 7.83804 20.7866 8.11004Z" fill="white" style="fill:white;fill-opacity:1;"/>
<path d="M23.663 10V6.80804H24.245L24.269 7.66004L24.191 7.61804C24.227 7.41004 24.295 7.24204 24.395 7.11404C24.495 6.98604 24.617 6.89204 24.761 6.83204C24.905 6.76804 25.061 6.73604 25.229 6.73604C25.469 6.73604 25.667 6.79004 25.823 6.89804C25.983 7.00204 26.103 7.14604 26.183 7.33004C26.267 7.51004 26.309 7.71604 26.309 7.94804V10H25.673V8.14004C25.673 7.95204 25.653 7.79404 25.613 7.66604C25.573 7.53804 25.507 7.44004 25.415 7.37204C25.323 7.30404 25.203 7.27004 25.055 7.27004C24.831 7.27004 24.649 7.34404 24.509 7.49204C24.369 7.64004 24.299 7.85604 24.299 8.14004V10H23.663Z" fill="white" style="fill:white;fill-opacity:1;"/>
<path d="M28.75 10.096C28.41 10.096 28.114 10.034 27.862 9.91004C27.614 9.78604 27.418 9.61404 27.274 9.39404C27.13 9.17404 27.046 8.91804 27.022 8.62604L27.688 8.58404C27.716 8.78404 27.774 8.95404 27.862 9.09404C27.95 9.23004 28.068 9.33404 28.216 9.40604C28.368 9.47404 28.55 9.50804 28.762 9.50804C28.946 9.50804 29.102 9.48604 29.23 9.44204C29.362 9.39404 29.462 9.32404 29.53 9.23204C29.598 9.14004 29.632 9.02804 29.632 8.89604C29.632 8.77604 29.602 8.67004 29.542 8.57804C29.486 8.48204 29.376 8.39604 29.212 8.32004C29.052 8.24004 28.816 8.16204 28.504 8.08604C28.164 8.00204 27.892 7.91004 27.688 7.81004C27.484 7.71004 27.336 7.58604 27.244 7.43804C27.156 7.28604 27.112 7.10004 27.112 6.88004C27.112 6.63604 27.17 6.42204 27.286 6.23804C27.406 6.05004 27.576 5.90404 27.796 5.80004C28.016 5.69604 28.28 5.64404 28.588 5.64404C28.912 5.64404 29.188 5.70404 29.416 5.82404C29.648 5.94404 29.83 6.10804 29.962 6.31604C30.098 6.52404 30.182 6.76204 30.214 7.03004L29.548 7.06604C29.528 6.90204 29.478 6.75804 29.398 6.63404C29.318 6.50604 29.21 6.40804 29.074 6.34004C28.938 6.26804 28.772 6.23204 28.576 6.23204C28.328 6.23204 28.132 6.29004 27.988 6.40604C27.848 6.51804 27.778 6.66804 27.778 6.85604C27.778 6.97604 27.806 7.07804 27.862 7.16204C27.922 7.24204 28.026 7.31204 28.174 7.37204C28.326 7.43204 28.54 7.49604 28.816 7.56404C29.184 7.64804 29.476 7.75204 29.692 7.87604C29.912 7.99604 30.068 8.13804 30.16 8.30204C30.252 8.46604 30.298 8.65204 30.298 8.86004C30.298 9.11204 30.232 9.33204 30.1 9.52004C29.972 9.70404 29.792 9.84604 29.56 9.94604C29.328 10.046 29.058 10.096 28.75 10.096Z" fill="white" style="fill:white;fill-opacity:1;"/>
<path d="M32.0971 10C31.7931 10 31.5691 9.93004 31.4251 9.79004C31.2811 9.65004 31.2091 9.43204 31.2091 9.13604V6.05804H31.8451V9.08804C31.8451 9.23604 31.8771 9.33804 31.9411 9.39404C32.0051 9.45004 32.1031 9.47804 32.2351 9.47804H32.6911V10H32.0971ZM30.7231 7.33004V6.80804H32.6911V7.33004H30.7231Z" fill="white" style="fill:white;fill-opacity:1;"/>
<path d="M33.3034 10V6.80804H33.8854L33.9094 7.65404L33.8554 7.63604C33.8994 7.34804 33.9874 7.13804 34.1194 7.00604C34.2554 6.87404 34.4374 6.80804 34.6654 6.80804H34.9714V7.37804H34.6654C34.5054 7.37804 34.3714 7.40404 34.2634 7.45604C34.1554 7.50804 34.0734 7.58804 34.0174 7.69604C33.9654 7.80404 33.9394 7.94404 33.9394 8.11604V10H33.3034Z" fill="white" style="fill:white;fill-opacity:1;"/>
<path d="M36.6784 10.072C36.3664 10.072 36.0964 10.004 35.8684 9.86804C35.6444 9.73204 35.4704 9.53804 35.3464 9.28604C35.2264 9.03404 35.1664 8.74004 35.1664 8.40404C35.1664 8.06804 35.2264 7.77604 35.3464 7.52804C35.4704 7.27604 35.6444 7.08204 35.8684 6.94604C36.0924 6.80604 36.3564 6.73604 36.6604 6.73604C36.9484 6.73604 37.2024 6.80404 37.4224 6.94004C37.6424 7.07204 37.8124 7.26404 37.9324 7.51604C38.0564 7.76804 38.1184 8.07204 38.1184 8.42804V8.59004H35.8264C35.8424 8.90204 35.9244 9.13604 36.0724 9.29204C36.2244 9.44804 36.4284 9.52604 36.6844 9.52604C36.8724 9.52604 37.0284 9.48204 37.1524 9.39404C37.2764 9.30604 37.3624 9.18804 37.4104 9.04004L38.0704 9.08204C37.9864 9.37804 37.8204 9.61804 37.5724 9.80204C37.3284 9.98204 37.0304 10.072 36.6784 10.072ZM35.8264 8.11004H37.4464C37.4264 7.82604 37.3444 7.61604 37.2004 7.48004C37.0604 7.34404 36.8804 7.27604 36.6604 7.27604C36.4324 7.27604 36.2444 7.34804 36.0964 7.49204C35.9524 7.63204 35.8624 7.83804 35.8264 8.11004Z" fill="white" style="fill:white;fill-opacity:1;"/>
<path d="M40.0169 10.072C39.7049 10.072 39.4349 10.004 39.2069 9.86804C38.9829 9.73204 38.8089 9.53804 38.6849 9.28604C38.5649 9.03404 38.5049 8.74004 38.5049 8.40404C38.5049 8.06804 38.5649 7.77604 38.6849 7.52804C38.8089 7.27604 38.9829 7.08204 39.2069 6.94604C39.4309 6.80604 39.6949 6.73604 39.9989 6.73604C40.2869 6.73604 40.5409 6.80404 40.7609 6.94004C40.9809 7.07204 41.1509 7.26404 41.2709 7.51604C41.3949 7.76804 41.4569 8.07204 41.4569 8.42804V8.59004H39.1649C39.1809 8.90204 39.2629 9.13604 39.4109 9.29204C39.5629 9.44804 39.7669 9.52604 40.0229 9.52604C40.2109 9.52604 40.3669 9.48204 40.4909 9.39404C40.6149 9.30604 40.7009 9.18804 40.7489 9.04004L41.4089 9.08204C41.3249 9.37804 41.1589 9.61804 40.9109 9.80204C40.6669 9.98204 40.3689 10.072 40.0169 10.072ZM39.1649 8.11004H40.7849C40.7649 7.82604 40.6829 7.61604 40.5389 7.48004C40.3989 7.34404 40.2189 7.27604 39.9989 7.27604C39.7709 7.27604 39.5829 7.34804 39.4349 7.49204C39.2909 7.63204 39.2009 7.83804 39.1649 8.11004Z" fill="white" style="fill:white;fill-opacity:1;"/>
<path d="M43.1481 10C42.8441 10 42.6201 9.93004 42.4761 9.79004C42.3321 9.65004 42.2601 9.43204 42.2601 9.13604V6.05804H42.8961V9.08804C42.8961 9.23604 42.9281 9.33804 42.9921 9.39404C43.0561 9.45004 43.1541 9.47804 43.2861 9.47804H43.7421V10H43.1481ZM41.7741 7.33004V6.80804H43.7421V7.33004H41.7741Z" fill="white" style="fill:white;fill-opacity:1;"/>
<path d="M44.3559 10V5.74004H45.2439L46.5099 9.23804L47.7759 5.74004H48.6639V10H48.0159V6.88004L46.8699 9.99404H46.1499L45.0039 6.88004V10H44.3559Z" fill="white" style="fill:white;fill-opacity:1;"/>
<path d="M50.4032 10.072C50.0712 10.072 49.8052 9.99604 49.6052 9.84404C49.4092 9.69204 49.3112 9.47804 49.3112 9.20204C49.3112 8.92604 49.3932 8.71204 49.5572 8.56004C49.7252 8.40404 49.9832 8.29204 50.3312 8.22404L51.4292 8.01404C51.4292 7.76604 51.3712 7.58204 51.2552 7.46204C51.1392 7.33804 50.9672 7.27604 50.7392 7.27604C50.5352 7.27604 50.3752 7.32204 50.2592 7.41404C50.1432 7.50204 50.0632 7.63404 50.0192 7.81004L49.3652 7.76804C49.4252 7.44804 49.5732 7.19604 49.8092 7.01204C50.0492 6.82804 50.3592 6.73604 50.7392 6.73604C51.1712 6.73604 51.4992 6.85204 51.7232 7.08404C51.9512 7.31204 52.0652 7.63404 52.0652 8.05004V9.29204C52.0652 9.36804 52.0772 9.42204 52.1012 9.45404C52.1292 9.48204 52.1732 9.49604 52.2332 9.49604H52.3472V10C52.3272 10.004 52.2952 10.008 52.2512 10.012C52.2072 10.016 52.1612 10.018 52.1132 10.018C51.9772 10.018 51.8592 9.99604 51.7592 9.95204C51.6632 9.90804 51.5912 9.83604 51.5432 9.73604C51.4952 9.63204 51.4712 9.49404 51.4712 9.32204L51.5372 9.35204C51.5052 9.49204 51.4352 9.61604 51.3272 9.72404C51.2232 9.83204 51.0892 9.91804 50.9252 9.98204C50.7652 10.042 50.5912 10.072 50.4032 10.072ZM50.5052 9.56804C50.6972 9.56804 50.8612 9.53204 50.9972 9.46004C51.1332 9.38404 51.2392 9.28004 51.3152 9.14804C51.3912 9.01604 51.4292 8.86604 51.4292 8.69804V8.49404L50.4932 8.67404C50.3012 8.71004 50.1652 8.76804 50.0852 8.84804C50.0092 8.92404 49.9712 9.02204 49.9712 9.14204C49.9712 9.27804 50.0172 9.38404 50.1092 9.46004C50.2052 9.53204 50.3372 9.56804 50.5052 9.56804Z" fill="white" style="fill:white;fill-opacity:1;"/>
<path d="M52.8242 10.9V6.80804H53.4242L53.4422 7.49204L53.3702 7.45604C53.4502 7.22004 53.5822 7.04204 53.7662 6.92204C53.9502 6.79804 54.1622 6.73604 54.4022 6.73604C54.7142 6.73604 54.9702 6.81404 55.1702 6.97004C55.3742 7.12204 55.5242 7.32404 55.6202 7.57604C55.7202 7.82804 55.7702 8.10404 55.7702 8.40404C55.7702 8.70404 55.7202 8.98004 55.6202 9.23204C55.5242 9.48404 55.3742 9.68804 55.1702 9.84404C54.9702 9.99604 54.7142 10.072 54.4022 10.072C54.2422 10.072 54.0922 10.044 53.9522 9.98804C53.8122 9.93204 53.6922 9.85404 53.5922 9.75404C53.4962 9.65004 53.4282 9.52804 53.3882 9.38804L53.4602 9.31604V10.9H52.8242ZM54.2882 9.52004C54.5442 9.52004 54.7442 9.42204 54.8882 9.22604C55.0362 9.03004 55.1102 8.75604 55.1102 8.40404C55.1102 8.05204 55.0362 7.77804 54.8882 7.58204C54.7442 7.38604 54.5442 7.28804 54.2882 7.28804C54.1202 7.28804 53.9742 7.33004 53.8502 7.41404C53.7262 7.49404 53.6302 7.61804 53.5622 7.78604C53.4942 7.95404 53.4602 8.16004 53.4602 8.40404C53.4602 8.64804 53.4922 8.85404 53.5562 9.02204C53.6242 9.19004 53.7202 9.31604 53.8442 9.40004C53.9722 9.48004 54.1202 9.52004 54.2882 9.52004Z" fill="white" style="fill:white;fill-opacity:1;"/>
<path d="M9.47792 10.072C9.17392 10.072 8.88792 10.016 8.61992 9.90404C8.35192 9.78804 8.11592 9.62804 7.91192 9.42404C7.70792 9.22004 7.54792 8.98404 7.43192 8.71604C7.31992 8.44804 7.26392 8.16204 7.26392 7.85804C7.26392 7.55004 7.31992 7.26404 7.43192 7.00004C7.54792 6.73204 7.70792 6.49604 7.91192 6.29204C8.11592 6.08804 8.35192 5.93004 8.61992 5.81804C8.88792 5.70204 9.17392 5.64404 9.47792 5.64404C9.78592 5.64404 10.0719 5.70204 10.3359 5.81804C10.6039 5.93004 10.8399 6.08804 11.0439 6.29204C11.2479 6.49604 11.4059 6.73204 11.5179 7.00004C11.6339 7.26404 11.6919 7.55004 11.6919 7.85804C11.6919 8.16204 11.6339 8.44804 11.5179 8.71604C11.4059 8.98404 11.2479 9.22004 11.0439 9.42404C10.8399 9.62804 10.6039 9.78804 10.3359 9.90404C10.0719 10.016 9.78592 10.072 9.47792 10.072ZM9.47792 9.56804C9.70992 9.56804 9.92792 9.52404 10.1319 9.43604C10.3359 9.34804 10.5159 9.22604 10.6719 9.07004C10.8319 8.91404 10.9559 8.73204 11.0439 8.52404C11.1319 8.31604 11.1759 8.09404 11.1759 7.85804C11.1759 7.62204 11.1319 7.40004 11.0439 7.19204C10.9559 6.98404 10.8319 6.80204 10.6719 6.64604C10.5159 6.49004 10.3359 6.36804 10.1319 6.28004C9.92792 6.19204 9.70992 6.14804 9.47792 6.14804C9.24592 6.14804 9.02792 6.19204 8.82392 6.28004C8.61992 6.36804 8.43792 6.49004 8.27792 6.64604C8.12192 6.80204 7.99992 6.98404 7.91192 7.19204C7.82392 7.40004 7.77992 7.62204 7.77992 7.85804C7.77992 8.09404 7.82392 8.31604 7.91192 8.52404C7.99992 8.73204 8.12192 8.91404 8.27792 9.07004C8.43792 9.22604 8.61992 9.34804 8.82392 9.43604C9.02792 9.52404 9.24592 9.56804 9.47792 9.56804ZM9.50192 9.11204C9.26592 9.11204 9.05592 9.06004 8.87192 8.95604C8.69192 8.84804 8.54992 8.70004 8.44592 8.51204C8.34592 8.32004 8.29592 8.10204 8.29592 7.85804C8.29592 7.61004 8.34592 7.39404 8.44592 7.21004C8.54992 7.02204 8.69192 6.87604 8.87192 6.77204C9.05592 6.66404 9.26592 6.61004 9.50192 6.61004C9.70192 6.61004 9.88192 6.65004 10.0419 6.73004C10.2019 6.80604 10.3319 6.91604 10.4319 7.06004C10.5319 7.20004 10.5899 7.36004 10.6059 7.54004L10.0779 7.57004C10.0579 7.42204 9.99392 7.30204 9.88592 7.21004C9.78192 7.11804 9.65392 7.07204 9.50192 7.07204C9.36992 7.07204 9.25192 7.10604 9.14792 7.17404C9.04792 7.23804 8.96792 7.33004 8.90792 7.45004C8.85192 7.56604 8.82392 7.70204 8.82392 7.85804C8.82392 8.01404 8.85192 8.15204 8.90792 8.27204C8.96792 8.39204 9.04792 8.48604 9.14792 8.55404C9.25192 8.61804 9.36992 8.65004 9.50192 8.65004C9.60592 8.65004 9.69992 8.62804 9.78392 8.58404C9.87192 8.53604 9.94192 8.47204 9.99392 8.39204C10.0499 8.30804 10.0859 8.21204 10.1019 8.10404L10.6299 8.13404C10.6099 8.32204 10.5479 8.49004 10.4439 8.63804C10.3439 8.78604 10.2119 8.90204 10.0479 8.98604C9.88792 9.07004 9.70592 9.11204 9.50192 9.11204Z" stroke="black" stroke-opacity="0.3" style="stroke:black;stroke-opacity:0.3;" stroke-linejoin="round" mask="url(#path-5-outside-1_2080_109)"/>
<path d="M14.1469 10.096C13.7349 10.096 13.3809 10.008 13.0849 9.83204C12.7889 9.65204 12.5609 9.39604 12.4009 9.06404C12.2409 8.73204 12.1609 8.33604 12.1609 7.87604C12.1609 7.41604 12.2409 7.02004 12.4009 6.68804C12.5609 6.35204 12.7889 6.09404 13.0849 5.91404C13.3809 5.73404 13.7349 5.64404 14.1469 5.64404C14.5629 5.64404 14.9189 5.73404 15.2149 5.91404C15.5149 6.09404 15.7429 6.35204 15.8989 6.68804C16.0589 7.02004 16.1389 7.41604 16.1389 7.87604C16.1389 8.33604 16.0589 8.73204 15.8989 9.06404C15.7429 9.39604 15.5149 9.65204 15.2149 9.83204C14.9189 10.008 14.5629 10.096 14.1469 10.096ZM14.1469 9.50204C14.4229 9.50204 14.6589 9.43804 14.8549 9.31004C15.0549 9.18204 15.2069 8.99804 15.3109 8.75804C15.4149 8.51404 15.4669 8.22004 15.4669 7.87604C15.4669 7.53204 15.4149 7.23804 15.3109 6.99404C15.2069 6.75004 15.0549 6.56404 14.8549 6.43604C14.6589 6.30404 14.4229 6.23804 14.1469 6.23804C13.8749 6.23804 13.6409 6.30404 13.4449 6.43604C13.2489 6.56404 13.0969 6.75004 12.9889 6.99404C12.8849 7.23804 12.8329 7.53204 12.8329 7.87604C12.8329 8.22004 12.8849 8.51404 12.9889 8.75804C13.0969 8.99804 13.2489 9.18204 13.4449 9.31004C13.6409 9.43804 13.8749 9.50204 14.1469 9.50204Z" stroke="black" stroke-opacity="0.3" style="stroke:black;stroke-opacity:0.3;" stroke-linejoin="round" mask="url(#path-5-outside-1_2080_109)"/>
<path d="M16.7928 10.9V6.80804H17.3928L17.4108 7.49204L17.3388 7.45604C17.4188 7.22004 17.5508 7.04204 17.7348 6.92204C17.9188 6.79804 18.1308 6.73604 18.3708 6.73604C18.6828 6.73604 18.9388 6.81404 19.1388 6.97004C19.3428 7.12204 19.4928 7.32404 19.5888 7.57604C19.6888 7.82804 19.7388 8.10404 19.7388 8.40404C19.7388 8.70404 19.6888 8.98004 19.5888 9.23204C19.4928 9.48404 19.3428 9.68804 19.1388 9.84404C18.9388 9.99604 18.6828 10.072 18.3708 10.072C18.2108 10.072 18.0608 10.044 17.9208 9.98804C17.7808 9.93204 17.6608 9.85404 17.5608 9.75404C17.4648 9.65004 17.3968 9.52804 17.3568 9.38804L17.4288 9.31604V10.9H16.7928ZM18.2568 9.52004C18.5128 9.52004 18.7128 9.42204 18.8568 9.22604C19.0048 9.03004 19.0788 8.75604 19.0788 8.40404C19.0788 8.05204 19.0048 7.77804 18.8568 7.58204C18.7128 7.38604 18.5128 7.28804 18.2568 7.28804C18.0888 7.28804 17.9428 7.33004 17.8188 7.41404C17.6948 7.49404 17.5988 7.61804 17.5308 7.78604C17.4628 7.95404 17.4288 8.16004 17.4288 8.40404C17.4288 8.64804 17.4608 8.85404 17.5248 9.02204C17.5928 9.19004 17.6888 9.31604 17.8128 9.40004C17.9408 9.48004 18.0888 9.52004 18.2568 9.52004Z" stroke="black" stroke-opacity="0.3" style="stroke:black;stroke-opacity:0.3;" stroke-linejoin="round" mask="url(#path-5-outside-1_2080_109)"/>
<path d="M21.6386 10.072C21.3266 10.072 21.0566 10.004 20.8286 9.86804C20.6046 9.73204 20.4306 9.53804 20.3066 9.28604C20.1866 9.03404 20.1266 8.74004 20.1266 8.40404C20.1266 8.06804 20.1866 7.77604 20.3066 7.52804C20.4306 7.27604 20.6046 7.08204 20.8286 6.94604C21.0526 6.80604 21.3166 6.73604 21.6206 6.73604C21.9086 6.73604 22.1626 6.80404 22.3826 6.94004C22.6026 7.07204 22.7726 7.26404 22.8926 7.51604C23.0166 7.76804 23.0786 8.07204 23.0786 8.42804V8.59004H20.7866C20.8026 8.90204 20.8846 9.13604 21.0326 9.29204C21.1846 9.44804 21.3886 9.52604 21.6446 9.52604C21.8326 9.52604 21.9886 9.48204 22.1126 9.39404C22.2366 9.30604 22.3226 9.18804 22.3706 9.04004L23.0306 9.08204C22.9466 9.37804 22.7806 9.61804 22.5326 9.80204C22.2886 9.98204 21.9906 10.072 21.6386 10.072ZM20.7866 8.11004H22.4066C22.3866 7.82604 22.3046 7.61604 22.1606 7.48004C22.0206 7.34404 21.8406 7.27604 21.6206 7.27604C21.3926 7.27604 21.2046 7.34804 21.0566 7.49204C20.9126 7.63204 20.8226 7.83804 20.7866 8.11004Z" stroke="black" stroke-opacity="0.3" style="stroke:black;stroke-opacity:0.3;" stroke-linejoin="round" mask="url(#path-5-outside-1_2080_109)"/>
<path d="M23.663 10V6.80804H24.245L24.269 7.66004L24.191 7.61804C24.227 7.41004 24.295 7.24204 24.395 7.11404C24.495 6.98604 24.617 6.89204 24.761 6.83204C24.905 6.76804 25.061 6.73604 25.229 6.73604C25.469 6.73604 25.667 6.79004 25.823 6.89804C25.983 7.00204 26.103 7.14604 26.183 7.33004C26.267 7.51004 26.309 7.71604 26.309 7.94804V10H25.673V8.14004C25.673 7.95204 25.653 7.79404 25.613 7.66604C25.573 7.53804 25.507 7.44004 25.415 7.37204C25.323 7.30404 25.203 7.27004 25.055 7.27004C24.831 7.27004 24.649 7.34404 24.509 7.49204C24.369 7.64004 24.299 7.85604 24.299 8.14004V10H23.663Z" stroke="black" stroke-opacity="0.3" style="stroke:black;stroke-opacity:0.3;" stroke-linejoin="round" mask="url(#path-5-outside-1_2080_109)"/>
<path d="M28.75 10.096C28.41 10.096 28.114 10.034 27.862 9.91004C27.614 9.78604 27.418 9.61404 27.274 9.39404C27.13 9.17404 27.046 8.91804 27.022 8.62604L27.688 8.58404C27.716 8.78404 27.774 8.95404 27.862 9.09404C27.95 9.23004 28.068 9.33404 28.216 9.40604C28.368 9.47404 28.55 9.50804 28.762 9.50804C28.946 9.50804 29.102 9.48604 29.23 9.44204C29.362 9.39404 29.462 9.32404 29.53 9.23204C29.598 9.14004 29.632 9.02804 29.632 8.89604C29.632 8.77604 29.602 8.67004 29.542 8.57804C29.486 8.48204 29.376 8.39604 29.212 8.32004C29.052 8.24004 28.816 8.16204 28.504 8.08604C28.164 8.00204 27.892 7.91004 27.688 7.81004C27.484 7.71004 27.336 7.58604 27.244 7.43804C27.156 7.28604 27.112 7.10004 27.112 6.88004C27.112 6.63604 27.17 6.42204 27.286 6.23804C27.406 6.05004 27.576 5.90404 27.796 5.80004C28.016 5.69604 28.28 5.64404 28.588 5.64404C28.912 5.64404 29.188 5.70404 29.416 5.82404C29.648 5.94404 29.83 6.10804 29.962 6.31604C30.098 6.52404 30.182 6.76204 30.214 7.03004L29.548 7.06604C29.528 6.90204 29.478 6.75804 29.398 6.63404C29.318 6.50604 29.21 6.40804 29.074 6.34004C28.938 6.26804 28.772 6.23204 28.576 6.23204C28.328 6.23204 28.132 6.29004 27.988 6.40604C27.848 6.51804 27.778 6.66804 27.778 6.85604C27.778 6.97604 27.806 7.07804 27.862 7.16204C27.922 7.24204 28.026 7.31204 28.174 7.37204C28.326 7.43204 28.54 7.49604 28.816 7.56404C29.184 7.64804 29.476 7.75204 29.692 7.87604C29.912 7.99604 30.068 8.13804 30.16 8.30204C30.252 8.46604 30.298 8.65204 30.298 8.86004C30.298 9.11204 30.232 9.33204 30.1 9.52004C29.972 9.70404 29.792 9.84604 29.56 9.94604C29.328 10.046 29.058 10.096 28.75 10.096Z" stroke="black" stroke-opacity="0.3" style="stroke:black;stroke-opacity:0.3;" stroke-linejoin="round" mask="url(#path-5-outside-1_2080_109)"/>
<path d="M32.0971 10C31.7931 10 31.5691 9.93004 31.4251 9.79004C31.2811 9.65004 31.2091 9.43204 31.2091 9.13604V6.05804H31.8451V9.08804C31.8451 9.23604 31.8771 9.33804 31.9411 9.39404C32.0051 9.45004 32.1031 9.47804 32.2351 9.47804H32.6911V10H32.0971ZM30.7231 7.33004V6.80804H32.6911V7.33004H30.7231Z" stroke="black" stroke-opacity="0.3" style="stroke:black;stroke-opacity:0.3;" stroke-linejoin="round" mask="url(#path-5-outside-1_2080_109)"/>
<path d="M33.3034 10V6.80804H33.8854L33.9094 7.65404L33.8554 7.63604C33.8994 7.34804 33.9874 7.13804 34.1194 7.00604C34.2554 6.87404 34.4374 6.80804 34.6654 6.80804H34.9714V7.37804H34.6654C34.5054 7.37804 34.3714 7.40404 34.2634 7.45604C34.1554 7.50804 34.0734 7.58804 34.0174 7.69604C33.9654 7.80404 33.9394 7.94404 33.9394 8.11604V10H33.3034Z" stroke="black" stroke-opacity="0.3" style="stroke:black;stroke-opacity:0.3;" stroke-linejoin="round" mask="url(#path-5-outside-1_2080_109)"/>
<path d="M36.6784 10.072C36.3664 10.072 36.0964 10.004 35.8684 9.86804C35.6444 9.73204 35.4704 9.53804 35.3464 9.28604C35.2264 9.03404 35.1664 8.74004 35.1664 8.40404C35.1664 8.06804 35.2264 7.77604 35.3464 7.52804C35.4704 7.27604 35.6444 7.08204 35.8684 6.94604C36.0924 6.80604 36.3564 6.73604 36.6604 6.73604C36.9484 6.73604 37.2024 6.80404 37.4224 6.94004C37.6424 7.07204 37.8124 7.26404 37.9324 7.51604C38.0564 7.76804 38.1184 8.07204 38.1184 8.42804V8.59004H35.8264C35.8424 8.90204 35.9244 9.13604 36.0724 9.29204C36.2244 9.44804 36.4284 9.52604 36.6844 9.52604C36.8724 9.52604 37.0284 9.48204 37.1524 9.39404C37.2764 9.30604 37.3624 9.18804 37.4104 9.04004L38.0704 9.08204C37.9864 9.37804 37.8204 9.61804 37.5724 9.80204C37.3284 9.98204 37.0304 10.072 36.6784 10.072ZM35.8264 8.11004H37.4464C37.4264 7.82604 37.3444 7.61604 37.2004 7.48004C37.0604 7.34404 36.8804 7.27604 36.6604 7.27604C36.4324 7.27604 36.2444 7.34804 36.0964 7.49204C35.9524 7.63204 35.8624 7.83804 35.8264 8.11004Z" stroke="black" stroke-opacity="0.3" style="stroke:black;stroke-opacity:0.3;" stroke-linejoin="round" mask="url(#path-5-outside-1_2080_109)"/>
<path d="M40.0169 10.072C39.7049 10.072 39.4349 10.004 39.2069 9.86804C38.9829 9.73204 38.8089 9.53804 38.6849 9.28604C38.5649 9.03404 38.5049 8.74004 38.5049 8.40404C38.5049 8.06804 38.5649 7.77604 38.6849 7.52804C38.8089 7.27604 38.9829 7.08204 39.2069 6.94604C39.4309 6.80604 39.6949 6.73604 39.9989 6.73604C40.2869 6.73604 40.5409 6.80404 40.7609 6.94004C40.9809 7.07204 41.1509 7.26404 41.2709 7.51604C41.3949 7.76804 41.4569 8.07204 41.4569 8.42804V8.59004H39.1649C39.1809 8.90204 39.2629 9.13604 39.4109 9.29204C39.5629 9.44804 39.7669 9.52604 40.0229 9.52604C40.2109 9.52604 40.3669 9.48204 40.4909 9.39404C40.6149 9.30604 40.7009 9.18804 40.7489 9.04004L41.4089 9.08204C41.3249 9.37804 41.1589 9.61804 40.9109 9.80204C40.6669 9.98204 40.3689 10.072 40.0169 10.072ZM39.1649 8.11004H40.7849C40.7649 7.82604 40.6829 7.61604 40.5389 7.48004C40.3989 7.34404 40.2189 7.27604 39.9989 7.27604C39.7709 7.27604 39.5829 7.34804 39.4349 7.49204C39.2909 7.63204 39.2009 7.83804 39.1649 8.11004Z" stroke="black" stroke-opacity="0.3" style="stroke:black;stroke-opacity:0.3;" stroke-linejoin="round" mask="url(#path-5-outside-1_2080_109)"/>
<path d="M43.1481 10C42.8441 10 42.6201 9.93004 42.4761 9.79004C42.3321 9.65004 42.2601 9.43204 42.2601 9.13604V6.05804H42.8961V9.08804C42.8961 9.23604 42.9281 9.33804 42.9921 9.39404C43.0561 9.45004 43.1541 9.47804 43.2861 9.47804H43.7421V10H43.1481ZM41.7741 7.33004V6.80804H43.7421V7.33004H41.7741Z" stroke="black" stroke-opacity="0.3" style="stroke:black;stroke-opacity:0.3;" stroke-linejoin="round" mask="url(#path-5-outside-1_2080_109)"/>
<path d="M44.3559 10V5.74004H45.2439L46.5099 9.23804L47.7759 5.74004H48.6639V10H48.0159V6.88004L46.8699 9.99404H46.1499L45.0039 6.88004V10H44.3559Z" stroke="black" stroke-opacity="0.3" style="stroke:black;stroke-opacity:0.3;" stroke-linejoin="round" mask="url(#path-5-outside-1_2080_109)"/>
<path d="M50.4032 10.072C50.0712 10.072 49.8052 9.99604 49.6052 9.84404C49.4092 9.69204 49.3112 9.47804 49.3112 9.20204C49.3112 8.92604 49.3932 8.71204 49.5572 8.56004C49.7252 8.40404 49.9832 8.29204 50.3312 8.22404L51.4292 8.01404C51.4292 7.76604 51.3712 7.58204 51.2552 7.46204C51.1392 7.33804 50.9672 7.27604 50.7392 7.27604C50.5352 7.27604 50.3752 7.32204 50.2592 7.41404C50.1432 7.50204 50.0632 7.63404 50.0192 7.81004L49.3652 7.76804C49.4252 7.44804 49.5732 7.19604 49.8092 7.01204C50.0492 6.82804 50.3592 6.73604 50.7392 6.73604C51.1712 6.73604 51.4992 6.85204 51.7232 7.08404C51.9512 7.31204 52.0652 7.63404 52.0652 8.05004V9.29204C52.0652 9.36804 52.0772 9.42204 52.1012 9.45404C52.1292 9.48204 52.1732 9.49604 52.2332 9.49604H52.3472V10C52.3272 10.004 52.2952 10.008 52.2512 10.012C52.2072 10.016 52.1612 10.018 52.1132 10.018C51.9772 10.018 51.8592 9.99604 51.7592 9.95204C51.6632 9.90804 51.5912 9.83604 51.5432 9.73604C51.4952 9.63204 51.4712 9.49404 51.4712 9.32204L51.5372 9.35204C51.5052 9.49204 51.4352 9.61604 51.3272 9.72404C51.2232 9.83204 51.0892 9.91804 50.9252 9.98204C50.7652 10.042 50.5912 10.072 50.4032 10.072ZM50.5052 9.56804C50.6972 9.56804 50.8612 9.53204 50.9972 9.46004C51.1332 9.38404 51.2392 9.28004 51.3152 9.14804C51.3912 9.01604 51.4292 8.86604 51.4292 8.69804V8.49404L50.4932 8.67404C50.3012 8.71004 50.1652 8.76804 50.0852 8.84804C50.0092 8.92404 49.9712 9.02204 49.9712 9.14204C49.9712 9.27804 50.0172 9.38404 50.1092 9.46004C50.2052 9.53204 50.3372 9.56804 50.5052 9.56804Z" stroke="black" stroke-opacity="0.3" style="stroke:black;stroke-opacity:0.3;" stroke-linejoin="round" mask="url(#path-5-outside-1_2080_109)"/>
<path d="M52.8242 10.9V6.80804H53.4242L53.4422 7.49204L53.3702 7.45604C53.4502 7.22004 53.5822 7.04204 53.7662 6.92204C53.9502 6.79804 54.1622 6.73604 54.4022 6.73604C54.7142 6.73604 54.9702 6.81404 55.1702 6.97004C55.3742 7.12204 55.5242 7.32404 55.6202 7.57604C55.7202 7.82804 55.7702 8.10404 55.7702 8.40404C55.7702 8.70404 55.7202 8.98004 55.6202 9.23204C55.5242 9.48404 55.3742 9.68804 55.1702 9.84404C54.9702 9.99604 54.7142 10.072 54.4022 10.072C54.2422 10.072 54.0922 10.044 53.9522 9.98804C53.8122 9.93204 53.6922 9.85404 53.5922 9.75404C53.4962 9.65004 53.4282 9.52804 53.3882 9.38804L53.4602 9.31604V10.9H52.8242ZM54.2882 9.52004C54.5442 9.52004 54.7442 9.42204 54.8882 9.22604C55.0362 9.03004 55.1102 8.75604 55.1102 8.40404C55.1102 8.05204 55.0362 7.77804 54.8882 7.58204C54.7442 7.38604 54.5442 7.28804 54.2882 7.28804C54.1202 7.28804 53.9742 7.33004 53.8502 7.41404C53.7262 7.49404 53.6302 7.61804 53.5622 7.78604C53.4942 7.95404 53.4602 8.16004 53.4602 8.40404C53.4602 8.64804 53.4922 8.85404 53.5562 9.02204C53.6242 9.19004 53.7202 9.31604 53.8442 9.40004C53.9722 9.48004 54.1202 9.52004 54.2882 9.52004Z" stroke="black" stroke-opacity="0.3" style="stroke:black;stroke-opacity:0.3;" stroke-linejoin="round" mask="url(#path-5-outside-1_2080_109)"/>
</svg>
